<svg xmlns="http://www.w3.org/2000/svg" version="1.1" xmlns:xlink="http://www.w3.org/1999/xlink" xmlns:svgjs="http://svgjs.dev/svgjs" width="2000" height="419" viewBox="0 0 2000 419"><g transform="matrix(1,0,0,1,-1.2121212121212466,0.9613385035378599)"><svg viewBox="0 0 396 83" data-background-color="#161618" preserveAspectRatio="xMidYMid meet" height="419" width="2000" xmlns="http://www.w3.org/2000/svg" xmlns:xlink="http://www.w3.org/1999/xlink"><g id="tight-bounds" transform="matrix(1,0,0,1,0.2400000000000091,-0.19043220953136597)"><svg viewBox="0 0 395.52 83.38086441906275" height="83.38086441906275" width="395.52"><g><svg viewBox="0 0 529.2485055683208 111.57260792572747" height="83.38086441906275" width="395.52"><g transform="matrix(1,0,0,1,133.72850556832074,1.9644959909739796)"><svg viewBox="0 0 395.52 107.64361594377951" height="107.64361594377951" width="395.52"><g id="textblocktransform"><svg viewBox="0 0 395.52 107.64361594377951" height="107.64361594377951" width="395.52" id="textblock"><g><svg viewBox="0 0 395.52 107.64361594377951" height="107.64361594377951" width="395.52"><rect width="395.52" height="107.64361594377951" x="0" y="0" opacity="1" fill="#ffffff" data-fill-palette-color="tertiary"></rect><g transform="matrix(1,0,0,1,23.607599999999998,23.607599999999998)"><svg width="348.3048" viewBox="3.71 -38.09 222.32 38.580000000000005" height="60.42841594377951" data-palette-color="#161618"><path d="M19.56 0.49L19.56 0.49Q14.82 0.49 11.24-1.66 7.67-3.81 5.69-7.9 3.71-11.99 3.71-17.8L3.71-17.8Q3.71-23.61 5.69-27.7 7.67-31.79 11.24-33.94 14.82-36.08 19.56-36.08L19.56-36.08Q21.34-36.08 23.07-35.72 24.8-35.35 26.38-34.61 27.95-33.86 29.25-32.75 30.54-31.64 31.45-30.15 32.35-28.66 32.74-26.78L32.74-26.78 29.32-25.54 28.93-25.54Q28.49-27.51 27.2-29.05 25.9-30.59 24.01-31.46 22.12-32.32 19.87-32.32L19.87-32.32Q17.31-32.32 15.22-31.42 13.13-30.52 11.65-28.7 10.16-26.88 9.35-24.16 8.54-21.44 8.54-17.8L8.54-17.8Q8.54-12.96 9.96-9.73 11.38-6.49 13.93-4.87 16.48-3.25 19.87-3.25L19.87-3.25Q22.12-3.25 24.04-4.14 25.95-5.03 27.27-6.57 28.59-8.11 29.03-10.06L29.03-10.06 29.42-10.06 32.84-8.81Q32.45-6.96 31.53-5.46 30.62-3.96 29.31-2.84 28-1.73 26.43-0.99 24.85-0.24 23.1 0.12 21.34 0.49 19.56 0.49ZM49.83 0.49L49.83 0.49Q45.99 0.49 43.32-1.23 40.65-2.95 39.26-6.04 37.86-9.13 37.86-13.23L37.86-13.23Q37.86-17.43 39.23-20.52 40.6-23.61 43.27-25.31 45.94-27 49.83-27L49.83-27Q53.71-27 56.37-25.31 59.03-23.61 60.4-20.52 61.77-17.43 61.77-13.23L61.77-13.23Q61.77-9.13 60.37-6.04 58.98-2.95 56.32-1.23 53.66 0.49 49.83 0.49ZM49.83-2.81L49.83-2.81Q52.41-2.81 54.04-4.16 55.66-5.52 56.43-7.86 57.2-10.21 57.2-13.21L57.2-13.21Q57.2-16.28 56.43-18.64 55.66-21 54.03-22.34 52.39-23.68 49.83-23.68L49.83-23.68Q45.97-23.68 44.2-20.75 42.43-17.82 42.43-13.21L42.43-13.21Q42.43-10.21 43.2-7.86 43.97-5.52 45.6-4.16 47.24-2.81 49.83-2.81ZM78.9 0.49L78.9 0.49Q75.19 0.49 72.65-1.26 70.11-3 68.82-6.1 67.52-9.2 67.52-13.28L67.52-13.28Q67.52-17.41 68.88-20.47 70.23-23.54 72.79-25.23 75.34-26.93 78.88-26.93L78.88-26.93Q81.42-26.93 83.16-26.17 84.91-25.42 86.03-24.22L86.03-24.22 85.91-28.15 85.91-37.6 90.5-38.09 90.5 0 86.66 0 86.42-2.88Q84.98-1.17 82.94-0.34 80.9 0.49 78.9 0.49ZM79.37-2.81L79.37-2.81Q81.44-2.81 83.16-3.5 84.88-4.2 86.05-5.62L86.05-5.62 86.05-20.63Q85.03-22.12 83.26-22.9 81.49-23.68 79.34-23.68L79.34-23.68Q77.51-23.68 76.15-22.99 74.8-22.29 73.9-20.96 72.99-19.63 72.54-17.71 72.09-15.8 72.09-13.35L72.09-13.35Q72.09-10.03 72.87-7.68 73.65-5.32 75.28-4.06 76.9-2.81 79.37-2.81ZM110.27 0.49L110.27 0.49Q106.71 0.49 103.84-1.15 100.97-2.78 99.3-5.85 97.62-8.91 97.62-13.13L97.62-13.13Q97.62-17.53 99.26-20.63 100.9-23.73 103.65-25.37 106.41-27 109.73-27L109.73-27Q112.98-27 115.28-25.56 117.57-24.12 118.8-21.46 120.04-18.8 120.04-15.14L120.04-15.14Q120.04-14.77 119.98-14.14 119.91-13.5 119.87-12.99 119.82-12.48 119.82-12.43L119.82-12.43 102.17-12.43Q102.36-9.06 103.52-6.93 104.68-4.81 106.57-3.81 108.46-2.81 110.83-2.81L110.83-2.81Q113.1-2.81 114.71-3.45 116.33-4.1 117.96-5.03L117.96-5.03 118.28-5.03 119.3-2.12Q117.67-1 115.36-0.26 113.05 0.49 110.27 0.49ZM102.24-15.31L102.24-15.31 116.23-15.31Q116.18-19.29 114.65-21.5 113.13-23.71 109.95-23.71L109.95-23.71Q106.76-23.71 104.67-21.45 102.58-19.19 102.24-15.31ZM142.15 0.49L142.15 0.49Q137.42 0.49 133.84-1.66 130.26-3.81 128.29-7.9 126.31-11.99 126.31-17.8L126.31-17.8Q126.31-23.61 128.29-27.7 130.26-31.79 133.84-33.94 137.42-36.08 142.15-36.08L142.15-36.08Q143.94-36.08 145.67-35.72 147.4-35.35 148.98-34.61 150.55-33.86 151.85-32.75 153.14-31.64 154.04-30.15 154.95-28.66 155.34-26.78L155.34-26.78 151.92-25.54 151.53-25.54Q151.09-27.51 149.79-29.05 148.5-30.59 146.61-31.46 144.72-32.32 142.47-32.32L142.47-32.32Q139.91-32.32 137.82-31.42 135.73-30.52 134.24-28.7 132.75-26.88 131.95-24.16 131.14-21.44 131.14-17.8L131.14-17.8Q131.14-12.96 132.56-9.73 133.97-6.49 136.53-4.87 139.08-3.25 142.47-3.25L142.47-3.25Q144.72-3.25 146.63-4.14 148.55-5.03 149.87-6.57 151.19-8.11 151.63-10.06L151.63-10.06 152.02-10.06 155.43-8.81Q155.04-6.96 154.13-5.46 153.21-3.96 151.91-2.84 150.6-1.73 149.03-0.99 147.45-0.24 145.69 0.12 143.94 0.49 142.15 0.49ZM168.86 0.49L168.86 0.49Q165.08 0.49 162.71-1.42 160.34-3.32 160.34-7.18L160.34-7.18Q160.34-8.94 160.96-10.3 161.58-11.67 162.85-12.61 164.12-13.55 166.13-14.04 168.13-14.53 170.86-14.53L170.86-14.53 176.82-14.53 176.82-17.58Q176.82-20.78 175.38-22.2 173.94-23.63 171.03-23.63L171.03-23.63Q169.15-23.63 166.8-23.03 164.44-22.44 162.56-21.14L162.56-21.14 161.27-24.51Q162.61-25.37 164.23-25.92 165.86-26.46 167.63-26.73 169.4-27 171.15-27L171.15-27Q174.13-27 176.4-26.05 178.67-25.1 179.96-22.95 181.24-20.8 181.24-17.21L181.24-17.21 181.24 0 177.53 0 177.21-3.25Q176.16-2 174.91-1.17 173.67-0.34 172.17 0.07 170.67 0.49 168.86 0.49ZM169.54-2.66L169.54-2.66Q171.89-2.66 173.74-3.64 175.6-4.61 176.82-6.18L176.82-6.18 176.82-11.72 171.67-11.72Q168.98-11.72 167.42-11.21 165.86-10.69 165.21-9.68 164.56-8.67 164.56-7.13L164.56-7.13Q164.56-4.64 166.02-3.65 167.47-2.66 169.54-2.66ZM197.25 0.49L197.25 0.49Q194.08 0.49 191.35-0.57 188.63-1.64 187-3.69L187-3.69 189.32-5.93 189.66-5.93Q191.24-4.1 193.32-3.42 195.4-2.73 197.25-2.73L197.25-2.73Q199.79-2.73 201.18-3.91 202.57-5.08 202.57-7.5L202.57-7.5Q202.57-8.35 202.26-9.05 201.94-9.74 200.96-10.36 199.99-10.99 197.96-11.62L197.96-11.62 194.98-12.55Q191.78-13.55 190.24-14.65 188.71-15.75 188.23-17.04 187.75-18.33 187.75-19.9L187.75-19.9Q187.75-23.19 190.33-25.1 192.9-27 197.32-27L197.32-27Q199.47-27 201.16-26.5 202.84-26 204.09-25.13 205.33-24.27 206.11-23.14L206.11-23.14 203.7-21.17 203.45-21.17Q202.55-22.24 201.01-22.95 199.47-23.66 197.35-23.66L197.35-23.66Q195.49-23.66 194.35-23.21 193.2-22.75 192.66-21.9 192.12-21.04 192.12-19.87L192.12-19.87Q192.12-18.53 192.92-17.72 193.71-16.92 196.42-16.06L196.42-16.06 199.35-15.14Q202.52-14.11 204.07-12.94 205.62-11.77 206.13-10.46 206.63-9.16 206.63-7.67L206.63-7.67Q206.63-4.79 205.36-2.99 204.09-1.2 201.96-0.35 199.84 0.49 197.25 0.49ZM223.22 0.2L223.22 0.2Q220.42 0.2 218.7-0.23 216.97-0.66 216.08-1.61 215.19-2.56 214.88-4.17 214.56-5.79 214.56-8.15L214.56-8.15 214.56-23.71 210.38-23.71 210.5-26.17 214.68-26.39 215.31-33.54 219-33.81 219-26.42 226.03-26.42 226.03-23.71 219-23.71 219-8.13Q219-6.05 219.23-4.98 219.46-3.91 220.37-3.5 221.27-3.1 223.22-3.03L223.22-3.03Q223.88-3 224.54-2.98 225.2-2.95 225.86-2.93L225.86-2.93 225.67 0.2Q225.06 0.2 224.45 0.2 223.84 0.2 223.22 0.2Z" opacity="1" transform="matrix(1,0,0,1,0,0)" fill="#000000" class="wordmark-text-0" data-fill-palette-color="quaternary" id="text-0"></path></svg></g></svg></g></svg></g></svg></g><g><svg viewBox="0 0 121.92470556832073 111.57260792572747" height="111.57260792572747" width="121.92470556832073"><g><svg xmlns:x="http://ns.adobe.com/Extensibility/1.0/" xmlns:i="http://ns.adobe.com/AdobeIllustrator/10.0/" xmlns:graph="http://ns.adobe.com/Graphs/1.0/" xmlns="http://www.w3.org/2000/svg" xmlns:xlink="http://www.w3.org/1999/xlink" version="1.1" x="0" y="0" viewBox="2.3 6.3999999999999995 95.4 87.30000000000001" enable-background="new 0 0 100 100" xml:space="preserve" height="111.57260792572747" width="121.92470556832073" class="icon-icon-0" data-fill-palette-color="accent" id="icon-0"><g fill="#ffffff" data-fill-palette-color="accent"><g fill="#ffffff" data-fill-palette-color="accent"><path d="M10 75.9h31.4v8.6h-6.1c-1 0-1.9 0.8-1.9 1.9v5.4c0 1 0.8 1.9 1.9 1.9h29.5c1 0 1.9-0.8 1.9-1.9v-5.4c0-1-0.8-1.9-1.9-1.9h-6.1v-8.6H90c4.3 0 7.7-3.5 7.7-7.7V14.1c0-4.3-3.5-7.7-7.7-7.7H10c-4.3 0-7.7 3.5-7.7 7.7v54.1C2.3 72.5 5.7 75.9 10 75.9zM12.8 16.9h74.5v48.4H12.8V16.9zM38.6 32.4l-9.3 9.3 9.3 9.3L33.6 56 19.4 41.7l14.3-14.3L38.6 32.4zM66.4 27.4l14.3 14.3L66.4 56 61.4 51l9.3-9.3-9.3-9.3L66.4 27.4zM53.6 22.6l6.5 2.6L46.4 59.8l-6.5-2.6L53.6 22.6z" fill="#ffffff" data-fill-palette-color="accent"></path></g></g></svg><g></g></g></svg></g></svg></g><defs></defs></svg><rect width="395.52" height="83.38086441906275" fill="none" stroke="none" visibility="hidden"></rect></g></svg></g></svg>